# File created by Blade
# Date/Time:  Thu Sep 25 15:31:15 2014
# Frame Rate: 120.000 fps
#------------------------------------------------------
:FULLY-SPECIFIED
:DEGREES
1278
root -35.617619 32.086222 16.161576 237.808972 33.484471 -164.740352
Spine 19.207092 10.275386 -6.472269
Head -61.909018 7.128630 12.621899
LeftShoulder 5.621057 10.187040 20.098179
LeftArm 40.814990 14.018020 -50.213426
LeftForeArm -7.120139 -0.000000 34.396188
LeftHand -28.997733 -0.000000 20.338935
LeftHandThumb1 -26.253704 0.000000 33.147579
RightShoulder -2.964200 23.268025 -19.438635
RightArm 15.935147 -38.791522 78.099296
RightForeArm -27.512000 -0.000000 56.620127
RightHand -2.064668 0.000000 -1.522391
RightHandThumb1 -24.326973 -0.000000 -32.862282
LeftUpLeg -38.207446 5.990803 1.913170
LeftLeg -7.874500 -0.000000 0.000000
LeftFoot -14.936558 17.657466 -17.519615
LeftToeBase 1.642239 -0.000000 -0.000000
RightUpLeg -45.217690 -1.927155 5.961028
RightLeg 52.526065 -0.000000 -0.000000
RightFoot -13.775312 -12.244075 -0.264812
RightToeBase -5.502334 -0.000000 0.000000
1279
root -35.586290 32.062378 16.120807 236.998333 33.551351 -164.982027
Spine 19.211756 10.070563 -6.164942
Head -61.482327 6.953114 12.660516
LeftShoulder 5.642921 10.233960 19.977565
LeftArm 40.727544 14.432685 -50.346152
LeftForeArm -7.189509 -0.000000 34.396187
LeftHand -28.942375 -0.000000 20.236637
LeftHandThumb1 -26.253704 0.000000 33.147579
RightShoulder -3.145808 22.860868 -19.399176
RightArm 15.600616 -38.514665 78.486283
RightForeArm -27.506267 -0.000000 56.761344
RightHand -2.169715 -0.000000 -2.023747
RightHandThumb1 -24.326973 -0.000000 -32.862282
LeftUpLeg -37.415904 5.779356 1.860450
LeftLeg -7.895066 -0.000000 0.000000
LeftFoot -15.107158 17.636796 -17.707516
LeftToeBase 1.470631 -0.000000 -0.000000
RightUpLeg -46.703330 -1.777625 6.063473
RightLeg 53.757996 -0.000000 -0.000000
RightFoot -14.404108 -13.437945 -0.340350
RightToeBase -5.569812 -0.000000 0.000000
1280
root -35.567838 32.042796 16.077145 236.235451 33.605784 -165.381317
Spine 19.082130 9.645581 -5.968040
Head -61.061393 6.873094 12.672367
LeftShoulder 5.555367 10.340951 19.888498
LeftArm 40.701127 14.748251 -50.681720
LeftForeArm -7.148921 -0.000000 34.308138
LeftHand -28.949481 0.000000 20.129516
LeftHandThumb1 -26.253704 0.000000 33.147579
RightShoulder -3.270824 22.766678 -19.352415
RightArm 14.901132 -38.219908 79.137659
RightForeArm -27.521229 -0.000000 56.857312
RightHand -2.166648 -0.000000 -2.319131
RightHandThumb1 -24.326973 -0.000000 -32.862282
LeftUpLeg -36.911200 5.809764 1.401615
LeftLeg -7.713655 -0.000000 0.000000
LeftFoot -15.142758 17.264298 -17.588120
LeftToeBase 1.533980 -0.000000 -0.000000
RightUpLeg -48.407071 -1.787903 6.131299
RightLeg 54.841148 -0.000000 -0.000000
RightFoot -14.983364 -14.575926 -0.191513
RightToeBase -5.787477 -0.000000 0.000000
1281
root -35.530095 32.024002 16.034056 235.493044 33.566130 -165.694690
Spine 18.999407 9.272874 -5.691903
Head -60.736374 6.850033 12.767538
LeftShoulder 5.483102 10.471848 19.830591
LeftArm 40.652460 15.009808 -51.003332
LeftForeArm -6.999062 -0.000000 34.399188
LeftHand -28.978233 -0.000000 19.918789
LeftHandThumb1 -26.253704 0.000000 33.147579
RightShoulder -3.431351 22.480631 -19.219114
RightArm 14.507821 -37.997586 79.471450
RightForeArm -27.582061 -0.000000 56.995441
RightHand -2.266032 0.000000 -2.569391
RightHandThumb1 -24.326973 -0.000000 -32.862282
LeftUpLeg -36.218383 5.438039 1.456819
LeftLeg -7.755078 -0.000000 0.000000
LeftFoot -15.259650 17.443654 -17.625430
LeftToeBase 1.568590 -0.000000 -0.000000
RightUpLeg -50.001294 -1.773474 6.351523
RightLeg 55.711527 -0.000000 -0.000000
RightFoot -15.434186 -15.475072 -0.150544
RightToeBase -5.193930 -0.000000 0.000000
1282
root -35.489215 31.994517 15.967221 234.600156 33.695804 -166.046847
Spine 19.066373 9.040071 -5.538222
Head -60.492019 6.738028 12.782057
LeftShoulder 5.436314 10.676524 19.700504
LeftArm 40.714227 15.238475 -51.140652
LeftForeArm -6.980193 -0.000000 34.533501
LeftHand -28.926674 -0.000000 19.969597
LeftHandThumb1 -26.253704 0.000000 33.147579
RightShoulder -3.661907 22.175898 -19.101683
RightArm 14.172010 -37.634062 79.851299
RightForeArm -27.859213 -0.000000 56.938290
RightHand -2.132351 -0.000000 -2.861008
RightHandThumb1 -24.326973 -0.000000 -32.862282
LeftUpLeg -35.520017 5.706419 0.866694
LeftLeg -7.527113 -0.000000 0.000000
LeftFoot -15.391274 16.885825 -17.462519
LeftToeBase 1.559638 -0.000000 -0.000000
RightUpLeg -51.430961 -1.732432 6.409681
RightLeg 56.423008 -0.000000 -0.000000
RightFoot -16.083714 -16.584626 0.191815
RightToeBase -5.539412 -0.000000 0.000000
1283
root -35.443011 31.968739 15.904763 233.817942 33.761300 -166.334378
Spine 19.035515 8.796681 -5.338637
Head -60.227999 6.640208 12.855242
LeftShoulder 5.396392 10.852411 19.573237
LeftArm 40.637367 15.380949 -51.414627
LeftForeArm -6.764280 -0.000000 34.823322
LeftHand -28.942891 -0.000000 19.821095
LeftHandThumb1 -26.253704 0.000000 33.147579
RightShoulder -3.860339 21.918019 -18.950190
RightArm 13.827434 -37.448403 80.113891
RightForeArm -27.783960 0.000000 56.906892
RightHand -2.215678 -0.000000 -3.339529
RightHandThumb1 -24.326973 -0.000000 -32.862282
LeftUpLeg -34.669803 5.401114 0.837380
LeftLeg -7.687739 -0.000000 0.000000
LeftFoot -15.517446 17.032334 -17.708211
LeftToeBase 1.399545 -0.000000 -0.000000
RightUpLeg -52.870578 -1.578712 6.534631
RightLeg 56.966219 -0.000000 -0.000000
RightFoot -16.614894 -17.413530 0.363948
RightToeBase -4.918569 -0.000000 0.000000
1284
root -35.389484 31.956212 15.853771 233.184503 33.771666 -166.594690
Spine 18.854811 8.515134 -5.141969
Head -59.951320 6.533024 12.965238
LeftShoulder 5.280271 11.085405 19.484814
LeftArm 40.695797 15.529205 -51.694694
LeftForeArm -6.530628 -0.000000 35.004623
LeftHand -28.924821 -0.000000 19.699443
LeftHandThumb1 -26.253704 0.000000 33.147579
RightShoulder -3.980107 21.624513 -18.768968
RightArm 13.476107 -37.066069 80.364724
RightForeArm -27.053686 -0.000000 57.031542
RightHand -2.257942 -0.000000 -2.881456
RightHandThumb1 -24.326973 -0.000000 -32.862282
LeftUpLeg -34.035520 5.091058 0.947861
LeftLeg -7.544296 -0.000000 0.000000
LeftFoot -15.511313 16.843666 -17.622774
LeftToeBase 1.001536 -0.000000 -0.000000
RightUpLeg -54.322683 -1.219856 6.654833
RightLeg 57.134401 -0.000000 -0.000000
RightFoot -17.378762 -17.990794 0.989568
RightToeBase -3.791514 -0.000000 0.000000
